<svg xmlns="http://www.w3.org/2000/svg" viewBox="0 0 383.27 235.48"><title>404</title><path d="M218.8,343.42H150.12v-32.7L215.53,156h39.25V310.72h17v32.7h-17V385h-36Zm0-32.7V221.44h-.65l-35.32,89.28Z" transform="translate(-150.12 -152.76)" style="fill:#1d1d1b"/><path d="M286.81,330.67V210.32c0-36.63,19.3-57.56,54.62-57.56s54.62,20.93,54.62,57.56V330.67c0,36.63-19.3,57.56-54.62,57.56S286.81,367.3,286.81,330.67ZM360.07,333V208c0-16.35-7.19-22.57-18.64-22.57s-18.64,6.22-18.64,22.57V333c0,16.35,7.19,22.57,18.64,22.57S360.07,349.31,360.07,333Z" transform="translate(-150.12 -152.76)" style="fill:#1d1d1b"/><path d="M480.41,343.42H411.73v-32.7L477.14,156h39.25V310.72h17v32.7h-17V385h-36Zm0-32.7V221.44h-.65l-35.32,89.28Z" transform="translate(-150.12 -152.76)" style="fill:#1d1d1b"/></svg>