<svg xmlns="http://www.w3.org/2000/svg" viewBox="0 0 208.89 30.96"><title>Middel 4</title><path d="M0,.43H12.51v4.3H4.73v8.39h6.11v4.29H4.73V30.53H0Z" style="fill:#000000"/><path d="M14.45,23.39V7.57C14.45,2.75,17,0,21.63,0s7.18,2.75,7.18,7.57V23.39c0,4.82-2.54,7.57-7.18,7.57S14.45,28.21,14.45,23.39Zm9.63.3V7.27c0-2.15-.95-3-2.45-3s-2.45.82-2.45,3V23.69c0,2.15.94,3,2.45,3S24.08,25.84,24.08,23.69Z" style="fill:#000000"/><path d="M31.82,23.39V.43h4.73V23.74c0,2.14.9,2.92,2.41,2.92s2.41-.78,2.41-2.92V.43h4.55v23c0,4.82-2.4,7.57-7.05,7.57S31.82,28.21,31.82,23.39Z" style="fill:#000000"/><path d="M49.28.43h7c4.9,0,7,2.28,7,6.92V9.2c0,3.1-1,5.08-3.09,5.94v.08c2.36.73,3.14,3,3.14,6.37v5.29a8.9,8.9,0,0,0,.51,3.65H59a9.22,9.22,0,0,1-.43-3.7v-5.5c0-2.8-.82-3.7-3-3.7H54v12.9H49.28Zm6.45,12.9c1.76,0,2.84-.77,2.84-3.18V7.83c0-2.15-.74-3.1-2.41-3.1H54v8.6Z" style="fill:#000000"/><path d="M73.49.43h7c4.73,0,7,2.62,7,7.44v3c0,4.81-2.32,7.43-7,7.43H78.22V30.53H73.49Zm7,13.54c1.51,0,2.32-.68,2.32-2.83V7.57c0-2.15-.81-2.84-2.32-2.84H78.22V14Z" style="fill:#000000"/><path d="M90.08.43h4.73v25.8h7.79v4.3H90.08Z" style="fill:#000000"/><path d="M104.7,23.39V.43h4.73V23.74c0,2.14.91,2.92,2.41,2.92s2.41-.78,2.41-2.92V.43h4.56v23c0,4.82-2.41,7.57-7.06,7.57S104.7,28.21,104.7,23.39Z" style="fill:#000000"/><path d="M121.34,23.39V21.67h4.48v2.07c0,2.14.94,2.92,2.45,2.92s2.45-.78,2.45-3c0-2.49-.95-4.09-4-6.79-4-3.49-5.25-5.94-5.25-9.38,0-4.73,2.45-7.48,7-7.48s6.88,2.75,6.88,7.57V8.81h-4.47V7.27c0-2.15-.86-3-2.37-3s-2.36.82-2.36,2.88,1,3.78,4.08,6.49c4,3.49,5.21,5.89,5.21,9.64,0,4.9-2.5,7.65-7.14,7.65S121.34,28.21,121.34,23.39Z" style="fill:#000000"/><path d="M145,.43h12.51v4.3h-7.78v8.39h6.1v4.29h-6.1V30.53H145Z" style="fill:#000000"/><path d="M159.48,23.39V7.57C159.48,2.75,162,0,166.66,0s7.18,2.75,7.18,7.57V23.39c0,4.82-2.53,7.57-7.18,7.57S159.48,28.21,159.48,23.39Zm9.64.3V7.27c0-2.15-1-3-2.46-3s-2.45.82-2.45,3V23.69c0,2.15.95,3,2.45,3S169.12,25.84,169.12,23.69Z" style="fill:#000000"/><path d="M176.86,23.39V.43h4.73V23.74c0,2.14.9,2.92,2.4,2.92s2.41-.78,2.41-2.92V.43H191v23c0,4.82-2.41,7.57-7.05,7.57S176.86,28.21,176.86,23.39Z" style="fill:#000000"/><path d="M194.31.43h7c4.9,0,7,2.28,7,6.92V9.2c0,3.1-1,5.08-3.1,5.94v.08c2.37.73,3.14,3,3.14,6.37v5.29a8.9,8.9,0,0,0,.52,3.65h-4.82a9.42,9.42,0,0,1-.43-3.7v-5.5c0-2.8-.81-3.7-3-3.7H199v12.9h-4.73Zm6.45,12.9c1.77,0,2.84-.77,2.84-3.18V7.83c0-2.15-.73-3.1-2.41-3.1H199v8.6Z" style="fill:#000000"/></svg>